<svg width="59" height="22" viewBox="0 0 59 22" fill="none" xmlns="http://www.w3.org/2000/svg">
<path d="M51.2678 4.0107V0.00299272H40.4902L38.7177 13.3919L36.9638 0.00305774H33.0772L33.5126 3.57566C33.0637 2.66044 31.4724 0.00305774 27.9706 0.00305774C27.9475 0.00149637 24.0787 0.00305774 24.0787 0.00305774L24.0638 19.5185L21.2309 0.00305774L16.1408 0L13.2101 20.2206L13.2116 0.00292769H8.34004L6.58381 11.3609L4.87316 0.00305774H0V21.9862H3.83752V11.3904L5.58313 21.9859H7.62329L9.34438 11.3904V21.9859H16.7425L17.1914 18.6033H20.1699L20.6173 21.9859L27.8805 21.9906H27.8864V21.9859H27.8909H27.8954V14.8502L28.7859 14.716L30.6292 21.9906H30.6338H34.3816H34.386L34.3845 21.9859H34.3912H34.3957L31.9767 13.4598C33.2026 12.5215 34.5867 10.1388 34.2183 7.85941V7.85791C34.2227 7.88875 36.5016 22 36.5016 22L40.9697 21.9859L44.0228 2.06003V21.986H51.268V18.0323H47.8288V12.9906H51.268V8.97676H47.8288V4.0107H51.2678ZM17.6434 15.1173L18.6971 5.7191L19.7911 15.1173H17.6434ZM28.7983 10.7777C28.503 10.9259 28.195 11 27.8953 11V3.92892C27.9005 3.92892 27.9065 3.92749 27.9139 3.92749C28.2145 3.92593 30.4552 4.02156 30.4552 7.42587C30.4552 9.20667 29.6931 10.3287 28.7983 10.7777ZM59 18.0292V21.9829H51.9322V0H55.7376V18.0292H59Z" fill="url(#paint0_linear_5_2026)"/>
<defs>
<linearGradient id="paint0_linear_5_2026" x1="29.5" y1="0" x2="29.5" y2="22" gradientUnits="userSpaceOnUse">
<stop stop-color="#ED1D24"/>
<stop offset="1" stop-color="#ED1F69"/>
</linearGradient>
</defs>
</svg>
